<mxfile host="app.diagrams.net" agent="Mozilla/5.0 (Windows NT 10.0; Win64; x64) AppleWebKit/537.36 (KHTML, like Gecko) Chrome/129.0.0.0 Safari/537.36 Edg/129.0.0.0" version="24.7.17">
  <diagram name="ページ1" id="xtAuDafYuQu7YBXw1Qt7">
    <mxGraphModel dx="1042" dy="1798" grid="1" gridSize="10" guides="1" tooltips="1" connect="1" arrows="1" fold="1" page="1" pageScale="1" pageWidth="827" pageHeight="1169" math="0" shadow="0">
      <root>
        <mxCell id="0" />
        <mxCell id="1" parent="0" />
        <mxCell id="NDuk3JSvDHiowfhNgBDW-3" style="edgeStyle=orthogonalEdgeStyle;rounded=0;orthogonalLoop=1;jettySize=auto;html=1;entryX=0.5;entryY=0;entryDx=0;entryDy=0;" parent="1" source="NDuk3JSvDHiowfhNgBDW-1" target="NDuk3JSvDHiowfhNgBDW-2" edge="1">
          <mxGeometry relative="1" as="geometry" />
        </mxCell>
        <mxCell id="NDuk3JSvDHiowfhNgBDW-1" value="&quot;2桁までの数字&quot;の&lt;div&gt;ユーザーの入力を&lt;div&gt;求める, 変数に格納&lt;/div&gt;&lt;/div&gt;" style="rounded=1;whiteSpace=wrap;html=1;" parent="1" vertex="1">
          <mxGeometry x="354" y="70" width="120" height="60" as="geometry" />
        </mxCell>
        <mxCell id="NDuk3JSvDHiowfhNgBDW-6" style="edgeStyle=orthogonalEdgeStyle;rounded=0;orthogonalLoop=1;jettySize=auto;html=1;entryX=0.5;entryY=1;entryDx=0;entryDy=0;" parent="1" source="NDuk3JSvDHiowfhNgBDW-2" target="NDuk3JSvDHiowfhNgBDW-5" edge="1">
          <mxGeometry relative="1" as="geometry">
            <mxPoint x="580" y="290" as="targetPoint" />
          </mxGeometry>
        </mxCell>
        <mxCell id="NDuk3JSvDHiowfhNgBDW-8" value="数字でない" style="edgeLabel;html=1;align=center;verticalAlign=middle;resizable=0;points=[];" parent="NDuk3JSvDHiowfhNgBDW-6" vertex="1" connectable="0">
          <mxGeometry x="-0.4909" y="-1" relative="1" as="geometry">
            <mxPoint as="offset" />
          </mxGeometry>
        </mxCell>
        <mxCell id="NDuk3JSvDHiowfhNgBDW-13" style="edgeStyle=orthogonalEdgeStyle;rounded=0;orthogonalLoop=1;jettySize=auto;html=1;entryX=0.5;entryY=0;entryDx=0;entryDy=0;" parent="1" source="NDuk3JSvDHiowfhNgBDW-2" target="NDuk3JSvDHiowfhNgBDW-12" edge="1">
          <mxGeometry relative="1" as="geometry" />
        </mxCell>
        <mxCell id="NDuk3JSvDHiowfhNgBDW-2" value="&lt;div&gt;int型か&lt;/div&gt;&lt;div&gt;チェック&lt;/div&gt;" style="rhombus;whiteSpace=wrap;html=1;" parent="1" vertex="1">
          <mxGeometry x="374" y="250" width="80" height="80" as="geometry" />
        </mxCell>
        <mxCell id="NDuk3JSvDHiowfhNgBDW-9" style="edgeStyle=orthogonalEdgeStyle;rounded=0;orthogonalLoop=1;jettySize=auto;html=1;entryX=1;entryY=0.5;entryDx=0;entryDy=0;" parent="1" source="NDuk3JSvDHiowfhNgBDW-5" target="NDuk3JSvDHiowfhNgBDW-1" edge="1">
          <mxGeometry relative="1" as="geometry">
            <mxPoint x="570" y="90" as="targetPoint" />
            <Array as="points">
              <mxPoint x="550" y="100" />
            </Array>
          </mxGeometry>
        </mxCell>
        <mxCell id="NDuk3JSvDHiowfhNgBDW-5" value="”数字を入力してください”と表示し入力に戻る" style="rounded=1;whiteSpace=wrap;html=1;" parent="1" vertex="1">
          <mxGeometry x="490" y="170" width="120" height="60" as="geometry" />
        </mxCell>
        <mxCell id="NDuk3JSvDHiowfhNgBDW-11" style="edgeStyle=orthogonalEdgeStyle;rounded=0;orthogonalLoop=1;jettySize=auto;html=1;entryX=0.5;entryY=0;entryDx=0;entryDy=0;" parent="1" source="NDuk3JSvDHiowfhNgBDW-10" target="NDuk3JSvDHiowfhNgBDW-1" edge="1">
          <mxGeometry relative="1" as="geometry" />
        </mxCell>
        <mxCell id="NDuk3JSvDHiowfhNgBDW-10" value="&quot;数当てゲームをしましょう&quot;とプリント" style="rounded=1;whiteSpace=wrap;html=1;" parent="1" vertex="1">
          <mxGeometry x="354" y="-40" width="120" height="60" as="geometry" />
        </mxCell>
        <mxCell id="NDuk3JSvDHiowfhNgBDW-19" style="edgeStyle=orthogonalEdgeStyle;rounded=0;orthogonalLoop=1;jettySize=auto;html=1;" parent="1" source="NDuk3JSvDHiowfhNgBDW-12" target="NDuk3JSvDHiowfhNgBDW-18" edge="1">
          <mxGeometry relative="1" as="geometry" />
        </mxCell>
        <mxCell id="NDuk3JSvDHiowfhNgBDW-21" style="edgeStyle=orthogonalEdgeStyle;rounded=0;orthogonalLoop=1;jettySize=auto;html=1;entryX=0.5;entryY=1;entryDx=0;entryDy=0;" parent="1" source="NDuk3JSvDHiowfhNgBDW-12" target="NDuk3JSvDHiowfhNgBDW-20" edge="1">
          <mxGeometry relative="1" as="geometry">
            <mxPoint x="280" y="410" as="targetPoint" />
          </mxGeometry>
        </mxCell>
        <mxCell id="NDuk3JSvDHiowfhNgBDW-23" value="2桁以上" style="edgeLabel;html=1;align=center;verticalAlign=middle;resizable=0;points=[];" parent="NDuk3JSvDHiowfhNgBDW-21" vertex="1" connectable="0">
          <mxGeometry x="-0.635" relative="1" as="geometry">
            <mxPoint as="offset" />
          </mxGeometry>
        </mxCell>
        <mxCell id="NDuk3JSvDHiowfhNgBDW-12" value="桁数の検証&lt;div&gt;１～２桁&lt;/div&gt;" style="rhombus;whiteSpace=wrap;html=1;" parent="1" vertex="1">
          <mxGeometry x="374" y="370" width="80" height="80" as="geometry" />
        </mxCell>
        <mxCell id="NDuk3JSvDHiowfhNgBDW-25" style="edgeStyle=orthogonalEdgeStyle;rounded=0;orthogonalLoop=1;jettySize=auto;html=1;entryX=0.5;entryY=0;entryDx=0;entryDy=0;" parent="1" source="NDuk3JSvDHiowfhNgBDW-18" target="NDuk3JSvDHiowfhNgBDW-24" edge="1">
          <mxGeometry relative="1" as="geometry" />
        </mxCell>
        <mxCell id="NDuk3JSvDHiowfhNgBDW-18" value="ランダムな2桁までの数字を変数へ格納" style="rounded=1;whiteSpace=wrap;html=1;" parent="1" vertex="1">
          <mxGeometry x="354" y="490" width="120" height="60" as="geometry" />
        </mxCell>
        <mxCell id="NDuk3JSvDHiowfhNgBDW-41" style="edgeStyle=orthogonalEdgeStyle;rounded=0;orthogonalLoop=1;jettySize=auto;html=1;entryX=1;entryY=0.5;entryDx=0;entryDy=0;" parent="1" source="NDuk3JSvDHiowfhNgBDW-20" target="NDuk3JSvDHiowfhNgBDW-1" edge="1">
          <mxGeometry relative="1" as="geometry">
            <mxPoint x="630" y="90" as="targetPoint" />
            <Array as="points">
              <mxPoint x="630" y="100" />
            </Array>
          </mxGeometry>
        </mxCell>
        <mxCell id="NDuk3JSvDHiowfhNgBDW-20" value="&quot;数字は２桁までです&quot;&lt;div&gt;とプリント&lt;/div&gt;" style="rounded=1;whiteSpace=wrap;html=1;" parent="1" vertex="1">
          <mxGeometry x="570" y="330" width="120" height="60" as="geometry" />
        </mxCell>
        <mxCell id="NDuk3JSvDHiowfhNgBDW-31" style="edgeStyle=orthogonalEdgeStyle;rounded=0;orthogonalLoop=1;jettySize=auto;html=1;entryX=0.5;entryY=0;entryDx=0;entryDy=0;" parent="1" source="NDuk3JSvDHiowfhNgBDW-24" target="NDuk3JSvDHiowfhNgBDW-30" edge="1">
          <mxGeometry relative="1" as="geometry" />
        </mxCell>
        <mxCell id="NDuk3JSvDHiowfhNgBDW-32" style="edgeStyle=orthogonalEdgeStyle;rounded=0;orthogonalLoop=1;jettySize=auto;html=1;entryX=0.5;entryY=0;entryDx=0;entryDy=0;" parent="1" source="NDuk3JSvDHiowfhNgBDW-24" target="NDuk3JSvDHiowfhNgBDW-27" edge="1">
          <mxGeometry relative="1" as="geometry" />
        </mxCell>
        <mxCell id="NDuk3JSvDHiowfhNgBDW-33" value="一致しない" style="edgeLabel;html=1;align=center;verticalAlign=middle;resizable=0;points=[];" parent="NDuk3JSvDHiowfhNgBDW-32" vertex="1" connectable="0">
          <mxGeometry x="-0.4265" relative="1" as="geometry">
            <mxPoint as="offset" />
          </mxGeometry>
        </mxCell>
        <mxCell id="NDuk3JSvDHiowfhNgBDW-24" value="ユーザー入力&lt;div&gt;と一致するか&lt;/div&gt;" style="rhombus;whiteSpace=wrap;html=1;" parent="1" vertex="1">
          <mxGeometry x="374" y="590" width="80" height="80" as="geometry" />
        </mxCell>
        <mxCell id="NDuk3JSvDHiowfhNgBDW-36" style="edgeStyle=orthogonalEdgeStyle;rounded=0;orthogonalLoop=1;jettySize=auto;html=1;entryX=1;entryY=0.5;entryDx=0;entryDy=0;" parent="1" source="NDuk3JSvDHiowfhNgBDW-27" target="NDuk3JSvDHiowfhNgBDW-34" edge="1">
          <mxGeometry relative="1" as="geometry">
            <mxPoint x="570" y="870" as="targetPoint" />
            <Array as="points">
              <mxPoint x="570" y="870" />
            </Array>
          </mxGeometry>
        </mxCell>
        <mxCell id="NDuk3JSvDHiowfhNgBDW-27" value="&quot;残念！はずれ&quot;と表示" style="rounded=1;whiteSpace=wrap;html=1;" parent="1" vertex="1">
          <mxGeometry x="510" y="710" width="120" height="60" as="geometry" />
        </mxCell>
        <mxCell id="NDuk3JSvDHiowfhNgBDW-35" style="edgeStyle=orthogonalEdgeStyle;rounded=0;orthogonalLoop=1;jettySize=auto;html=1;entryX=0.5;entryY=0;entryDx=0;entryDy=0;" parent="1" source="NDuk3JSvDHiowfhNgBDW-30" target="NDuk3JSvDHiowfhNgBDW-34" edge="1">
          <mxGeometry relative="1" as="geometry" />
        </mxCell>
        <mxCell id="NDuk3JSvDHiowfhNgBDW-30" value="”おめでとうござい&lt;div&gt;ます! ”と表示&lt;/div&gt;" style="rounded=1;whiteSpace=wrap;html=1;" parent="1" vertex="1">
          <mxGeometry x="354" y="710" width="120" height="60" as="geometry" />
        </mxCell>
        <mxCell id="NDuk3JSvDHiowfhNgBDW-38" style="edgeStyle=orthogonalEdgeStyle;rounded=0;orthogonalLoop=1;jettySize=auto;html=1;entryX=0.5;entryY=0;entryDx=0;entryDy=0;" parent="1" source="NDuk3JSvDHiowfhNgBDW-34" target="NDuk3JSvDHiowfhNgBDW-37" edge="1">
          <mxGeometry relative="1" as="geometry" />
        </mxCell>
        <mxCell id="NDuk3JSvDHiowfhNgBDW-34" value="&quot;もう一度挑戦&lt;div&gt;しますか?&quot; と表示&lt;/div&gt;" style="rounded=1;whiteSpace=wrap;html=1;" parent="1" vertex="1">
          <mxGeometry x="354" y="840" width="120" height="60" as="geometry" />
        </mxCell>
        <mxCell id="NDuk3JSvDHiowfhNgBDW-39" style="edgeStyle=orthogonalEdgeStyle;rounded=0;orthogonalLoop=1;jettySize=auto;html=1;entryX=1;entryY=0.5;entryDx=0;entryDy=0;" parent="1" source="NDuk3JSvDHiowfhNgBDW-37" target="NDuk3JSvDHiowfhNgBDW-1" edge="1">
          <mxGeometry relative="1" as="geometry">
            <mxPoint x="480" y="100" as="targetPoint" />
            <Array as="points">
              <mxPoint x="701" y="1010" />
              <mxPoint x="701" y="100" />
            </Array>
          </mxGeometry>
        </mxCell>
        <mxCell id="NDuk3JSvDHiowfhNgBDW-42" value="yのとき" style="edgeLabel;html=1;align=center;verticalAlign=middle;resizable=0;points=[];" parent="NDuk3JSvDHiowfhNgBDW-39" vertex="1" connectable="0">
          <mxGeometry x="-0.8682" y="-1" relative="1" as="geometry">
            <mxPoint as="offset" />
          </mxGeometry>
        </mxCell>
        <mxCell id="NDuk3JSvDHiowfhNgBDW-44" style="edgeStyle=orthogonalEdgeStyle;rounded=0;orthogonalLoop=1;jettySize=auto;html=1;entryX=0;entryY=0.5;entryDx=0;entryDy=0;" parent="1" source="NDuk3JSvDHiowfhNgBDW-37" target="NDuk3JSvDHiowfhNgBDW-34" edge="1">
          <mxGeometry relative="1" as="geometry">
            <mxPoint x="240" y="870" as="targetPoint" />
            <Array as="points">
              <mxPoint x="250" y="1010" />
              <mxPoint x="250" y="870" />
            </Array>
          </mxGeometry>
        </mxCell>
        <mxCell id="NDuk3JSvDHiowfhNgBDW-45" value="yでもnでもない時" style="edgeLabel;html=1;align=center;verticalAlign=middle;resizable=0;points=[];" parent="NDuk3JSvDHiowfhNgBDW-44" vertex="1" connectable="0">
          <mxGeometry x="-0.7728" y="-1" relative="1" as="geometry">
            <mxPoint as="offset" />
          </mxGeometry>
        </mxCell>
        <mxCell id="NDuk3JSvDHiowfhNgBDW-47" style="edgeStyle=orthogonalEdgeStyle;rounded=0;orthogonalLoop=1;jettySize=auto;html=1;entryX=0.5;entryY=0;entryDx=0;entryDy=0;" parent="1" source="NDuk3JSvDHiowfhNgBDW-37" target="NDuk3JSvDHiowfhNgBDW-46" edge="1">
          <mxGeometry relative="1" as="geometry" />
        </mxCell>
        <mxCell id="NDuk3JSvDHiowfhNgBDW-37" value="y/n 入力" style="rhombus;whiteSpace=wrap;html=1;" parent="1" vertex="1">
          <mxGeometry x="374" y="970" width="80" height="80" as="geometry" />
        </mxCell>
        <mxCell id="NDuk3JSvDHiowfhNgBDW-46" value="&quot;お疲れさまでした！&quot;&lt;div&gt;と表示&lt;/div&gt;" style="rounded=1;whiteSpace=wrap;html=1;" parent="1" vertex="1">
          <mxGeometry x="354" y="1080" width="120" height="60" as="geometry" />
        </mxCell>
        <mxCell id="ldKq6G2l-pdbjOyEOSU9-2" style="edgeStyle=orthogonalEdgeStyle;rounded=0;orthogonalLoop=1;jettySize=auto;html=1;entryX=0;entryY=0.5;entryDx=0;entryDy=0;" edge="1" parent="1" source="ldKq6G2l-pdbjOyEOSU9-1" target="NDuk3JSvDHiowfhNgBDW-18">
          <mxGeometry relative="1" as="geometry" />
        </mxCell>
        <mxCell id="ldKq6G2l-pdbjOyEOSU9-1" value="SEED値を時間変化で&lt;div&gt;変更&lt;/div&gt;" style="rounded=1;whiteSpace=wrap;html=1;" vertex="1" parent="1">
          <mxGeometry x="170" y="490" width="120" height="60" as="geometry" />
        </mxCell>
      </root>
    </mxGraphModel>
  </diagram>
</mxfile>
